HIERARCHY
ROOT hip
{
  OFFSET 0 0 0
  CHANNELS 6 Xposition Yposition Zposition Zrotation Yrotation Xrotation
  JOINT abdomen
  {
    OFFSET 0 20.6881 -0.73152
    CHANNELS 3 Zrotation Xrotation Yrotation
    JOINT chest
    {
      OFFSET 0 11.7043 -0.48768
      CHANNELS 3 Zrotation Xrotation Yrotation
      JOINT neck
      {
        OFFSET 0 22.1894 -2.19456
        CHANNELS 3 Zrotation Xrotation Yrotation
        JOINT head
        {
          OFFSET -0.24384 7.07133 1.2192
          CHANNELS 3 Zrotation Xrotation Yrotation
          JOINT leftEye
          {
            OFFSET 4.14528 8.04674 8.04672
            CHANNELS 3 Zrotation Xrotation Yrotation
            End Site
            {
              OFFSET 1 0 0
            }
          }
          JOINT rightEye
          {
            OFFSET -3.6576 8.04674 8.04672
            CHANNELS 3 Zrotation Xrotation Yrotation
            End Site
            {
              OFFSET 1 0 0
            }
          }
        }
      }
      JOINT rCollar
      {
        OFFSET -2.68224 19.2634 -4.8768
        CHANNELS 3 Zrotation Xrotation Yrotation
        JOINT rShldr
        {
          OFFSET -8.77824 -1.95073 1.46304
          CHANNELS 3 Zrotation Xrotation Yrotation
          JOINT rForeArm
          {
            OFFSET -28.1742 -1.7115 0.48768
            CHANNELS 3 Zrotation Xrotation Yrotation
            JOINT rHand
            {
              OFFSET -22.5879 0.773209 7.07136
              CHANNELS 3 Zrotation Xrotation Yrotation
              JOINT rThumb1
              {
                OFFSET -1.2192 -0.487915 3.41376
                CHANNELS 3 Zrotation Xrotation Yrotation
                JOINT rThumb2
                {
                  OFFSET -3.37035 -0.52449 3.41376
                  CHANNELS 3 Zrotation Xrotation Yrotation
                  End Site
                  {
                    OFFSET -1.78271 -1.18214 1.43049
                  }
                }
              }
              JOINT rIndex1
              {
                OFFSET -7.75947 0.938293 5.60832
                CHANNELS 3 Zrotation Xrotation Yrotation
                JOINT rIndex2
                {
                  OFFSET -2.54057 -0.884171 1.56538
                  CHANNELS 3 Zrotation Xrotation Yrotation
                  End Site
                  {
                    OFFSET -1.62519 -0.234802 1.16502
                  }
                }
              }
              JOINT rMid1
              {
                OFFSET -8.24714 1.18213 3.41376
                CHANNELS 3 Zrotation Xrotation Yrotation
                JOINT rMid2
                {
                  OFFSET -3.10165 -0.590103 1.0647
                  CHANNELS 3 Zrotation Xrotation Yrotation
                  End Site
                  {
                    OFFSET -2.48547 -0.328903 0.83742
                  }
                }
              }
              JOINT rRing1
              {
                OFFSET -8.82822 0.546677 1.51678
                CHANNELS 3 Zrotation Xrotation Yrotation
                JOINT rRing2
                {
                  OFFSET -2.60934 -0.819778 -0.0198488
                  CHANNELS 3 Zrotation Xrotation Yrotation
                  End Site
                  {
                    OFFSET -2.33842 -0.294052 0.168128
                  }
                }
              }
              JOINT rPinky1
              {
                OFFSET -8.27202 -0.0477905 -0.4584
                CHANNELS 3 Zrotation Xrotation Yrotation
                JOINT rPinky2
                {
                  OFFSET -1.82734 -0.647385 -0.700984
                  CHANNELS 3 Zrotation Xrotation Yrotation
                  End Site
                  {
                    OFFSET -1.69225 -0.51767 -0.607171
                  }
                }
              }
            }
          }
        }
      }
      JOINT lCollar
      {
        OFFSET 2.68224 19.2634 -4.8768
        CHANNELS 3 Zrotation Xrotation Yrotation
        JOINT lShldr
        {
          OFFSET 8.77824 -1.95073 1.46304
          CHANNELS 3 Zrotation Xrotation Yrotation
          JOINT lForeArm
          {
            OFFSET 28.1742 -1.7115 0.48768
            CHANNELS 3 Zrotation Xrotation Yrotation
            JOINT lHand
            {
              OFFSET 22.5879 0.773209 7.07136
              CHANNELS 3 Zrotation Xrotation Yrotation
              JOINT lThumb1
              {
                OFFSET 1.2192 -0.487915 3.41376
                CHANNELS 3 Zrotation Xrotation Yrotation
                JOINT lThumb2
                {
                  OFFSET 3.37035 -0.52449 3.41376
                  CHANNELS 3 Zrotation Xrotation Yrotation
                  End Site
                  {
                    OFFSET 1.78271 -1.18214 1.43049
                  }
                }
              }
              JOINT lIndex1
              {
                OFFSET 7.75947 0.938293 5.60832
                CHANNELS 3 Zrotation Xrotation Yrotation
                JOINT lIndex2
                {
                  OFFSET 2.54057 -0.884171 1.56538
                  CHANNELS 3 Zrotation Xrotation Yrotation
                  End Site
                  {
                    OFFSET 1.62519 -0.234802 1.16502
                  }
                }
              }
              JOINT lMid1
              {
                OFFSET 8.24714 1.18213 3.41376
                CHANNELS 3 Zrotation Xrotation Yrotation
                JOINT lMid2
                {
                  OFFSET 3.10165 -0.590103 1.0647
                  CHANNELS 3 Zrotation Xrotation Yrotation
                  End Site
                  {
                    OFFSET 2.48547 -0.328903 0.83742
                  }
                }
              }
              JOINT lRing1
              {
                OFFSET 8.82822 0.546677 1.51678
                CHANNELS 3 Zrotation Xrotation Yrotation
                JOINT lRing2
                {
                  OFFSET 2.60934 -0.819778 -0.0198488
                  CHANNELS 3 Zrotation Xrotation Yrotation
                  End Site
                  {
                    OFFSET 2.33842 -0.294052 0.168128
                  }
                }
              }
              JOINT lPinky1
              {
                OFFSET 8.27202 -0.0477905 -0.4584
                CHANNELS 3 Zrotation Xrotation Yrotation
                JOINT lPinky2
                {
                  OFFSET 1.82734 -0.647385 -0.700984
                  CHANNELS 3 Zrotation Xrotation Yrotation
                  End Site
                  {
                    OFFSET 1.69225 -0.51767 -0.607171
                  }
                }
              }
            }
          }
        }
      }
    }
  }
  JOINT rButtock
  {
    OFFSET -8.77824 4.35084 1.2192
    CHANNELS 3 Zrotation Xrotation Yrotation
    JOINT rThigh
    {
      OFFSET 0 -1.70687 -2.19456
      CHANNELS 3 Zrotation Xrotation Yrotation
      JOINT rShin
      {
        OFFSET 0 -36.8199 0.73152
        CHANNELS 3 Zrotation Xrotation Yrotation
        JOINT rFoot
        {
          OFFSET 0.73152 -45.1104 -5.12064
          CHANNELS 3 Zrotation Xrotation Yrotation
          End Site
          {
            OFFSET -1.1221 -3.69964 12.103
          }
        }
      }
    }
  }
  JOINT lButtock
  {
    OFFSET 8.77824 4.35084 1.2192
    CHANNELS 3 Zrotation Xrotation Yrotation
    JOINT lThigh
    {
      OFFSET 0 -1.70687 -2.19456
      CHANNELS 3 Zrotation Xrotation Yrotation
      JOINT lShin
      {
        OFFSET 0 -36.8199 0.73152
        CHANNELS 3 Zrotation Xrotation Yrotation
        JOINT lFoot
        {
          OFFSET -0.73152 -45.1104 -5.12064
          CHANNELS 3 Zrotation Xrotation Yrotation
          End Site
          {
            OFFSET 1.1221 -3.69964 12.103
          }
        }
      }
    }
  }
}
MOTION
Frames:	4
Frame Time:	0.00833333
181.149 85.1731 -11.9838 0.0 0.0 0.0 0.512929 -0.0034181 0.0146931 0.141686 -0.00540192 0.0245502 4.60956e-15 -1.59028e-15 6.21202e-17 1.37503e-14 -6.36111e-15 1.78596e-16 -0.0 0.0 0.0 -0.0 0.0 0.0 2.33449e-15 3.88251e-18 2.98177e-16 5.00785e-14 8.07563e-17 1.39149e-15 8.39965e-13 -2.49077e-13 0.0 9.60316e-12 2.61526e-13 1.36764e-13 2.26534e-11 2.58033e-14 3.27597e-13 3.91188e-11 4.45278e-14 5.61368e-13 2.26611e-11 2.8625e-14 3.18055e-13 7.73091 5.47488 0.417314 2.26542e-11 2.6339e-14 3.30778e-13 2.90554 0.965183 0.102902 2.26654e-11 2.6339e-14 3.26802e-13 10.2786 0.731801 0.0259123 2.26547e-11 2.5842e-14 3.37139e-13 2.22167 -0.733487 -0.20892 2.23771e-15 3.10601e-18 -1.98785e-16 4.65548e-14 -2.04997e-16 1.98785e-16 8.38126e-13 2.50667e-13 -9.54166e-15 9.59799e-12 -2.5442e-13 1.74931e-13 2.26439e-11 -5.00523e-15 3.33958e-13 3.91037e-11 -6.36111e-15 5.7409e-13 2.2638e-11 -1.98785e-15 3.40319e-13 -7.73091 5.47488 -0.417314 2.26442e-11 -5.06901e-15 3.27597e-13 -2.90554 0.965183 -0.102902 2.26362e-11 -4.77083e-15 3.31573e-13 -10.2786 0.731801 -0.0259123 2.26485e-11 -3.97569e-15 3.27597e-13 -2.22167 -0.733487 0.20892 -2.03217e-16 0.0 -3.88251e-19 0.860053 -4.41146 -0.0729721 -0.00213156 2.4394 -0.0112561 -0.474489 1.97259 0.0938439 2.03217e-16 0.0 3.88251e-19 -0.0776474 -2.42096 0.0232534 0.00766749 -1.16603 0.0659969 0.465734 3.58744 -0.125209
173.223 84.0825 -17.5472 0.2198 -85.2069 -2.4129 -0.179287 2.24332 0.147798 0.383932 0.548161 0.0397909 1.27353 2.29492 1.14597 -1.54975 -4.10777 1.87292 -0.0 0.0 0.0 -0.0 0.0 0.0 -4.43676e-15 3.34592e-14 1.19845e-14 22.2353 9.46594 1.51446 -4.26728 -1.9484 6.65475 0.0399213 -4.43455 -0.616511 1.2646e-10 -3.0463e-10 -3.36087e-10 2.20194e-10 -5.28538e-10 -5.78909e-10 1.26467e-10 -3.04628e-10 -3.36097e-10 7.73091 5.47488 0.417314 1.26461e-10 -3.0463e-10 -3.36084e-10 2.90554 0.965183 0.102902 1.26472e-10 -3.0463e-10 -3.36088e-10 10.2786 0.731801 0.0259123 1.26458e-10 -3.0463e-10 -3.36082e-10 2.22167 -0.733487 -0.20892 -4.47932e-15 3.34558e-14 1.15703e-14 -22.5043 2.0898 -1.51128 4.16375 -1.88084 -6.51532 -0.00801372 1.9864 -0.278565 -5.27181e-11 3.27749e-10 6.30199e-10 -8.69969e-11 5.67358e-10 1.09006e-09 -5.2722e-11 3.27753e-10 6.30206e-10 -7.73091 5.47488 -0.417314 -5.27171e-11 3.2775e-10 6.30195e-10 -2.90554 0.965183 -0.102902 -5.27244e-11 3.2775e-10 6.30196e-10 -10.2786 0.731801 -0.0259123 -5.27132e-11 3.27751e-10 6.30192e-10 -2.22167 -0.733487 0.20892 -2.03217e-16 0.0 -3.88251e-19 1.9657 -5.39289 5.33544 0.0596278 9.63505 0.208831 -1.92057 -7.18769 -7.42417 2.03217e-16 0.0 3.88251e-19 0.323472 -4.38141 -4.43393 -0.039881 7.11769 -0.12887 1.27338 -3.56576 5.57223
173.209 84.0667 -17.5342 -0.0404 -85.0611 -2.0508 -0.922078 4.6152 0.273088 0.650463 1.13282 0.051131 2.4913 4.68922 2.37072 -2.84333 -8.36877 3.91067 -0.0 0.0 0.0 -0.0 0.0 0.0 -1.22774e-14 5.72797e-14 2.35436e-14 45.1546 19.4688 3.2589 -8.2903 -3.92082 13.715 -0.0228627 -9.12362 -1.28105 2.55199e-10 -6.36091e-10 -7.05967e-10 4.4454e-10 -1.10367e-09 -1.21586e-09 2.55205e-10 -6.36089e-10 -7.05978e-10 7.73091 5.47488 0.417314 2.552e-10 -6.3609e-10 -7.05965e-10 2.90554 0.965183 0.102902 2.55211e-10 -6.36091e-10 -7.05969e-10 10.2786 0.731801 0.0259123 2.55195e-10 -6.3609e-10 -7.05966e-10 2.22167 -0.733487 -0.20892 -1.22608e-14 5.72735e-14 2.32174e-14 -46.2049 4.23973 -3.11998 8.10127 -3.78647 -13.4218 0.00457956 4.09124 -0.574878 -1.20601e-10 6.78366e-10 1.32036e-09 -1.99774e-10 1.17421e-09 2.28371e-09 -1.20603e-10 6.78371e-10 1.32037e-09 -7.73091 5.47488 -0.417314 -1.20599e-10 6.78369e-10 1.32036e-09 -2.90554 0.965183 -0.102902 -1.20606e-10 6.78369e-10 1.32035e-09 -10.2786 0.731801 -0.0259123 -1.20596e-10 6.78368e-10 1.32035e-09 -2.22167 -0.733487 0.20892 -2.03217e-16 0.0 -3.88251e-19 3.33534 -6.36 11.0748 0.0621147 17.2485 0.45594 -6.12491 -16.3748 -15.9068 2.03217e-16 0.0 3.88251e-19 0.415112 -6.38563 -9.17966 -0.0269458 15.8626 -0.345869 3.68806 -10.9328 11.7937
173.196 84.0482 -17.523 -2.3296 -84.9059 0.3348 -1.59523 6.73664 0.416544 0.86754 1.65528 0.0702962 3.54366 6.87371 3.46005 -3.82902 -12.27 5.73576 -0.0 0.0 0.0 -0.0 0.0 0.0 -1.79793e-14 1.0037e-13 3.53573e-14 65.0331 28.3129 5.09199 -11.4693 -5.53043 20.05 -0.173193 -13.2974 -1.89481 3.34073e-10 -9.13943e-10 -1.00892e-09 5.82344e-10 -1.5857e-09 -1.73785e-09 3.34078e-10 -9.13941e-10 -1.00893e-09 7.73091 5.47488 0.417314 3.34075e-10 -9.13943e-10 -1.00891e-09 2.90554 0.965183 0.102902 3.34085e-10 -9.13943e-10 -1.00892e-09 10.2786 0.731801 0.0259123 3.34066e-10 -9.13942e-10 -1.00892e-09 2.22167 -0.733487 -0.20892 -1.79134e-14 1.00361e-13 3.51084e-14 -67.1809 6.2519 -4.55798 11.2309 -5.35128 -19.6244 0.0341707 5.95865 -0.839731 -2.03442e-10 9.83256e-10 1.88993e-09 -3.39198e-10 1.70209e-09 3.26902e-09 -2.03442e-10 9.83262e-10 1.88994e-09 -7.73091 5.47488 -0.417314 -2.0344e-10 9.83261e-10 1.88993e-09 -2.90554 0.965183 -0.102902 -2.03446e-10 9.8326e-10 1.88992e-09 -10.2786 0.731801 -0.0259123 -2.03437e-10 9.8326e-10 1.88992e-09 -2.22167 -0.733487 0.20892 -2.03217e-16 0.0 -3.88251e-19 4.72467 -7.13363 16.2097 0.00360361 24.0249 0.700867 -12.3543 -23.6473 -24.4538 2.03217e-16 0.0 3.88251e-19 0.212638 -8.11605 -13.4465 0.0459716 23.6842 -0.563018 7.24313 -17.1211 17.7449
